<?xml version="1.0" encoding="UTF-8"?><svg id="SHAKESHACK" xmlns="http://www.w3.org/2000/svg" viewBox="0 0 500 280.7"><defs><style>.cls-1{fill:#fff;}.cls-2{fill:#55a335;}</style></defs><g id="g823"><g id="g865"><g id="g867"><g id="g873"><path id="path875" class="cls-1" d="M31.6,148.65l-3.14-1.49c-4.73-2.22-6.65-3.47-6.65-6.99,0-3.26,2.49-5.53,6.05-5.53s5.68,1.27,7.41,4.11l.18.3,3.44-2.2-.18-.29c-2.47-4.01-5.94-5.87-10.91-5.87-5.99,0-10.33,4.04-10.33,9.59s3.36,8.15,9.16,10.87l3.14,1.49c4.71,2.18,7.11,4.03,7.11,8.08s-3.1,6.33-8.1,6.33c-4.33,0-7.83-2.1-9.86-5.92l-.16-.31-3.75,1.98.16.31c2.74,5.16,7.59,8,13.66,8,7.68,0,12.45-4.02,12.45-10.51,0-6.14-3.55-9.03-9.67-11.96"/></g></g></g><g id="g877"><path id="path879" class="cls-1" d="M73.28,153.87h-20.48v-22.72h-4.4v39.51h4.4v-12.79h20.48v12.79h4.4v-39.51h-4.4v22.72Z"/></g><g id="g881"><g id="g883"><g id="g889"><path id="path891" class="cls-1" d="M100.11,130.24l-16.61,40.42h4.46l2.74-6.73h19.57l2.68,6.73h4.58l-16.67-40.42h-.75ZM108.63,159.92h-16.34l8.22-20.25c2.7,6.7,7.2,17.88,8.12,20.25"/></g></g></g><g id="g893"><path id="path895" class="cls-1" d="M149.91,131.15h-5.05l-17.12,21.72v-21.72h-4.4v39.51h4.4v-11.76l4.62-5.73,13.88,17.49h5.34l-16.43-20.72,14.77-18.78Z"/></g><g id="g897"><path id="path899" class="cls-1" d="M161.3,157.81h17.58v-3.95h-17.58v-18.71h19.69v-4h-24.09v39.51h24.9v-4h-20.49v-8.84Z"/></g><g id="g901"><g id="g903"><g id="g909"><path id="path911" class="cls-1" d="M316.41,148.65l-3.14-1.49c-4.73-2.22-6.65-3.47-6.65-6.99,0-3.26,2.49-5.53,6.05-5.53s5.68,1.27,7.41,4.11l.18.3,3.44-2.2-.18-.29c-2.47-4.01-5.94-5.87-10.91-5.87-5.99,0-10.33,4.04-10.33,9.59s3.36,8.15,9.16,10.87l3.14,1.49c4.71,2.18,7.11,4.03,7.11,8.08s-3.1,6.33-8.1,6.33c-4.33,0-7.83-2.1-9.85-5.92l-.16-.3-3.75,1.98.16.31c2.74,5.16,7.59,8,13.66,8,7.68,0,12.45-4.03,12.45-10.51,0-6.14-3.55-9.03-9.67-11.96"/></g></g></g><g id="g913"><path id="path915" class="cls-1" d="M358.09,153.87h-20.48v-22.72h-4.4v39.51h4.4v-12.79h20.48v12.79h4.4v-39.51h-4.4v22.72Z"/></g><g id="g917"><g id="g919"><g id="g925"><path id="path927" class="cls-1" d="M384.92,130.24l-16.61,40.42h4.46l2.74-6.73h19.57l2.68,6.73h4.58l-16.67-40.42h-.75ZM393.44,159.92h-16.34l8.22-20.25c2.7,6.7,7.2,17.88,8.12,20.25"/></g><g id="g929"><path id="path931" class="cls-1" d="M436.13,160.74c-3.1,4.13-7.56,6.31-12.91,6.31-9.06,0-15.63-6.79-15.63-16.15s6.6-16.15,15.35-16.15c5.1,0,9.19,1.95,12.17,5.8l.21.26,3.41-2.46-.21-.28c-3.68-4.83-9.05-7.39-15.52-7.39-11.39,0-19.98,8.69-19.98,20.21-.03,5.58,2,10.7,5.7,14.41,3.72,3.74,8.83,5.8,14.4,5.8,6.95,0,12.49-2.66,16.48-7.9l.22-.28-3.48-2.46-.2.27Z"/></g></g></g><g id="g933"><path id="path935" class="cls-1" d="M457.79,149.93l14.77-18.78h-5.05l-17.12,21.72v-21.72h-4.4v39.5h4.4v-11.75l4.62-5.73,13.88,17.49h5.34l-16.43-20.72Z"/></g><g id="g937"><g id="g939"><g id="g945"><path id="path947" class="cls-2" d="M279.56,128.62v-5.36c2.8-.07,3.39-.88,3.92-1.61.51-.77.55-1.77.54-1.78v-.02c.02-6.68-4.2-13.06-11.68-17.94-7.44-4.85-17.97-7.94-29.62-7.94-11.65,0-22.18,3.09-29.61,7.94-7.48,4.88-11.69,11.26-11.68,17.94v.02s.03,1.01.53,1.78c.54.72,1.13,1.54,3.92,1.61h73.68v5.36h-73.68c-4.22.08-7.2-1.95-8.48-4.15-1.32-2.16-1.33-4.13-1.34-4.6v-.02c.34-18.23,21.67-31.19,46.65-31.25,25,.05,46.32,13.02,46.66,31.25v.02c-.01.47-.03,2.43-1.35,4.6-1.25,2.16-4.15,4.15-8.24,4.15-.08,0-.15,0-.23,0"/></g><g id="g949"><path id="path951" class="cls-2" d="M213.69,191.57c-6.77-.06-11.03-.6-14.16-3.12-3.13-2.7-3.46-6.51-3.47-10.63h0c.01-.5.06-2.34,1.46-4.28,1.41-1.98,4.29-3.55,8.36-3.51h73.68v5.36h-73.68c-2.93.05-3.64.84-4.04,1.32-.34.44-.41.92-.41,1.05v.04h0c0,4.02.52,5.73,1.56,6.53,1.04.99,4.25,1.91,10.71,1.86h55.24c7.87.04,11.85-1.06,13.31-2.26,1.35-1.03,1.75-2.51,1.78-5.99,0-.04,0-.09,0-.15-.02-.01,0-.08-.05-.31-.07-.23-.17-.52-.36-.78-.41-.48-1.11-1.28-4.05-1.32v-5.36c4.08-.04,6.95,1.53,8.36,3.51,1.24,1.71,1.41,3.35,1.45,4.04,0,.02,0,.06,0,.12v.12c.02,3.69-.41,7.72-3.89,10.38-3.41,2.51-8.32,3.32-16.56,3.37h-55.24Z"/></g><g id="g953"><path id="path955" class="cls-2" d="M204.29,164.87c-4.43-.01-8.2-3.43-8.22-7.93.02-4.51,3.8-7.92,8.22-7.93h76.87c4.42.02,8.2,3.42,8.22,7.93-.02,4.49-3.8,7.91-8.22,7.93h-76.87ZM201.43,156.94c0,1.29,1.17,2.54,2.87,2.55h76.87c1.68-.01,2.85-1.27,2.85-2.55s-1.18-2.56-2.85-2.57h-76.87c-1.7.02-2.87,1.27-2.87,2.57"/></g><g id="g957"><path id="path959" class="cls-2" d="M234.87,140.08c-.77-.88-.8-1.69-3.39-1.86-1.72,0-2.67.97-3.08,1.45-.12.12-.11.12-.14.19-.17.3-2.55,3.95-7.76,4-4.95.15-7.54-3.59-7.62-3.78-.77-.89-.8-1.69-3.39-1.86-1.72,0-2.67.97-3.09,1.45q-.1.12-.13.19c-.17.3-2.54,3.95-7.76,4-1.48,0-2.68-1.2-2.68-2.67s1.2-2.69,2.68-2.69c1.79,0,2.73-.94,3.13-1.38.1-.11.09-.11.06-.06.16-.27,2.5-4.13,7.8-4.21,4.98-.16,7.53,3.73,7.61,3.93.58.64.78,1.57,3.39,1.73,1.78,0,2.73-.94,3.12-1.38.05-.05.07-.08.08-.09.27-.44,2.61-4.11,7.79-4.19,4.96-.16,7.52,3.72,7.6,3.93.59.65.78,1.57,3.39,1.73,1.78,0,2.72-.94,3.12-1.38.05-.03.07-.06.08-.08.26-.42,2.6-4.12,7.8-4.2,4.97-.16,7.53,3.73,7.61,3.93.58.64.77,1.57,3.37,1.73,1.49,0,2.69,1.2,2.69,2.69s-1.2,2.67-2.69,2.67c-4.93.15-7.53-3.59-7.6-3.78-.77-.89-.8-1.69-3.39-1.86-1.72,0-2.68.97-3.09,1.45-.11.12-.1.14-.14.19-.18.28-2.54,3.95-7.76,4-.1,0-.2.01-.3.01-4.74,0-7.24-3.62-7.31-3.8"/></g><g id="g961"><path id="path963" class="cls-2" d="M278.85,140.08c-.78-.89-.81-1.69-3.39-1.86-1.72,0-2.68.97-3.09,1.45q-.1.12-.13.19c-.17.28-2.54,3.95-7.78,4-1.47,0-2.66-1.2-2.66-2.67s1.19-2.69,2.66-2.69c1.8,0,2.74-.94,3.14-1.38q.09-.11.06-.06c.16-.27,2.5-4.13,7.8-4.2,4.97-.17,7.53,3.72,7.61,3.93.57.63.79,1.56,3.39,1.72,1.48,0,2.67,1.2,2.67,2.69s-1.2,2.67-2.67,2.67c-.1,0-.19.01-.28.01-4.77,0-7.26-3.6-7.33-3.8"/></g></g><g id="g965"><path id="path967" class="cls-1" d="M485,134.15c0,.71-.12,1.36-.37,1.94-.25.58-.59,1.08-1.02,1.5-.43.41-.92.73-1.48.96-.56.23-1.15.34-1.77.34-.68,0-1.31-.12-1.88-.36-.57-.24-1.06-.57-1.47-1-.41-.42-.73-.92-.96-1.5-.23-.58-.35-1.21-.35-1.88,0-.71.12-1.36.37-1.94s.59-1.08,1.01-1.5c.43-.41.93-.73,1.49-.96.57-.23,1.16-.34,1.79-.34s1.21.12,1.77.34c.56.23,1.06.55,1.48.96.43.41.77.91,1.02,1.5.25.58.37,1.23.37,1.94M483.98,134.15c0-.57-.09-1.1-.28-1.58-.19-.48-.44-.9-.77-1.24-.33-.35-.72-.62-1.15-.8-.44-.19-.91-.29-1.42-.29s-1,.1-1.44.29c-.44.19-.83.46-1.16.8-.33.35-.59.76-.77,1.24-.19.48-.28,1.01-.28,1.58,0,.54.09,1.05.26,1.52.17.47.41.89.73,1.24s.7.64,1.15.84c.45.21.95.31,1.52.31.51,0,.98-.1,1.42-.29.44-.19.82-.46,1.15-.8.33-.35.59-.76.77-1.24.19-.48.28-1.01.28-1.59M479.42,136.86h-.86v-5.25h1.99c.63,0,1.11.12,1.43.35.32.24.48.62.48,1.15,0,.47-.13.82-.39,1.04-.26.22-.59.35-.97.39l1.47,2.31h-.98l-1.36-2.24h-.81v2.24ZM480.38,133.88c.16,0,.32,0,.46-.02.15-.01.28-.05.39-.11.11-.06.2-.14.27-.25.07-.1.1-.26.1-.45,0-.16-.04-.29-.11-.38-.07-.09-.16-.17-.27-.21-.11-.05-.23-.08-.37-.1-.14-.01-.27-.02-.39-.02h-1.04v1.53h.96Z"/></g></g></g></svg>